<?xml version="1.0" encoding="UTF-8" standalone="no"?><!DOCTYPE svg PUBLIC "-//W3C//DTD SVG 1.1//EN" "http://www.w3.org/Graphics/SVG/1.1/DTD/svg11.dtd"><svg width="100%" height="100%" viewBox="0 0 766 161" version="1.1" xmlns="http://www.w3.org/2000/svg" xmlns:xlink="http://www.w3.org/1999/xlink" xml:space="preserve" xmlns:serif="http://www.serif.com/" style="fill-rule:evenodd;clip-rule:evenodd;stroke-linejoin:round;stroke-miterlimit:2;"><rect id="Artboard5" x="0" y="0" width="765.92" height="160.783" style="fill:none;"/><g><path d="M28.349,37.836l191.772,0l-61.338,85.111l-130.434,-0l0,-85.111Z" style="fill:#c91d2a;"/><path d="M104.311,54.129l21.054,0c-0,0 13.038,17.894 14.118,19.514l8.639,12.572l23.061,-32.086l21.132,0l-33.011,45.969c-2.469,3.47 -5.94,6.556 -11.49,6.556c-5.4,-0 -8.871,-2.854 -11.417,-6.556l-32.086,-45.969Z" style="fill:#ebebeb;fill-rule:nonzero;"/><path d="M128.822,106.654l-83.662,-0l-0,-52.525l46.873,0l10.675,15.31l-39.652,-0l0,4.397l42.847,-0l8.882,12.797l-51.729,0l0,4.946l55.221,0l10.545,15.075Z" style="fill:#ebebeb;fill-rule:nonzero;"/><path d="M271.148,105.818l-31.773,-45.988c-2.205,-3.192 -5.321,-5.701 -10.034,-5.701c-4.941,0 -8.057,2.737 -10.186,5.701l-32.609,45.988l18.623,-0l23.868,-33.75l9.121,13.454c1.673,2.433 3.801,5.549 5.169,7.373c-2.432,-0.152 -6.005,-0.152 -9.045,-0.152l-12.77,0l-9.502,13.075l59.138,-0Z" style="fill:#fff;fill-rule:nonzero;"/><path d="M297.98,92.743c-8.589,0 -14.898,-4.94 -14.898,-12.162c-0,-7.297 6.385,-12.39 14.898,-12.39l25.54,0l10.11,-13.226l-35.65,0c-17.635,0 -30.633,10.034 -30.633,24.932c0,14.747 12.998,25.921 30.633,25.921l25.54,-0l10.11,-13.075l-35.65,0Z" style="fill:#fff;fill-rule:nonzero;"/><path d="M417.167,105.818l-31.773,-45.988c-2.204,-3.192 -5.321,-5.701 -10.033,-5.701c-4.941,0 -8.058,2.737 -10.186,5.701l-32.609,45.988l18.623,-0l23.867,-33.75l9.122,13.454c1.672,2.433 3.801,5.549 5.169,7.373c-2.433,-0.152 -6.005,-0.152 -9.046,-0.152l-12.77,0l-9.501,13.075l59.137,-0Z" style="fill:#fff;fill-rule:nonzero;"/><path d="M487.479,79.897c-0,-14.67 -12.846,-24.932 -30.633,-24.932l-24.02,0l-10.034,13.226l34.054,0c8.513,0 15.05,5.245 15.05,12.39c0,7.298 -6.309,12.162 -15.05,12.162l-18.243,0l-0,-18.623l-15.811,0l0,31.698l34.054,-0c17.635,-0 30.633,-11.174 30.633,-25.921Z" style="fill:#fff;fill-rule:nonzero;"/><path d="M511.271,92.743l-0,-6.917l31.241,0l9.045,-11.554l-40.286,0l-0,-6.081l32.913,0l10.185,-13.226l-58.909,0l-0,50.853l48.952,-0l10.109,-13.075l-43.25,0Z" style="fill:#fff;fill-rule:nonzero;"/><path d="M586.903,59.526c-1.825,-3.345 -4.561,-5.397 -8.59,-5.397c-3.952,0 -7.525,2.281 -8.893,6.993l-13.15,44.696l15.43,-0l4.789,-17.711c1.52,-5.701 2.66,-9.958 3.421,-13.987c1.596,3.421 3.42,6.994 7.145,13.987l6.841,12.846c2.66,5.017 5.245,5.701 9.045,5.701c3.801,-0 6.385,-0.684 9.046,-5.701l6.841,-12.77c3.496,-6.613 5.397,-10.49 7.069,-14.063c0.836,4.105 1.9,8.21 3.497,13.987l4.788,17.711l15.659,-0l-12.846,-44.696c-1.368,-4.712 -4.865,-6.993 -8.818,-6.993c-4.104,0 -6.841,2.128 -8.665,5.397l-8.133,14.442c-4.485,7.83 -6.461,11.554 -8.134,15.127c-1.748,-3.573 -3.724,-7.373 -8.209,-15.203l-8.133,-14.366Z" style="fill:#fff;fill-rule:nonzero;"/><path d="M700.997,54.965l-11.554,14.063c-3.648,4.408 -5.397,6.613 -6.385,8.057c-1.064,-1.52 -5.321,-6.157 -6.917,-7.981l-12.162,-14.139l-20.219,0l31.013,33.978l-0,16.875l15.811,-0l-0,-16.799l30.176,-34.054l-19.763,0Z" style="fill:#fff;fill-rule:nonzero;"/></g></svg>